<?xml version="1.0" encoding="UTF-8"?>
<svg xmlns="http://www.w3.org/2000/svg" version="1.1" viewBox="0 0 800 800">
  <defs>
    <style>
      .cls-1 {
        fill: #a3948b;
      }
    </style>
  </defs>
  <!-- Generator: Adobe Illustrator 28.6.0, SVG Export Plug-In . SVG Version: 1.2.0 Build 709)  -->
  <g>
    <g id="_圖層_1" data-name="圖層_1">
      <path class="cls-1" d="M400,633.3c-59.5,0-118-18.7-174-55.5-55.2-36.3-106.9-89.9-153.7-159.2-7.6-11.3-7.6-26,0-37.3,46.8-69.3,98.5-122.8,153.7-159.2,55.9-36.8,114.5-55.5,174-55.5s118,18.7,174,55.5c55.2,36.3,106.9,89.9,153.7,159.2,7.6,11.3,7.6,26,0,37.3-46.8,69.3-98.5,122.8-153.7,159.2-56,36.9-114.5,55.5-174,55.5ZM140.6,400c38.2,52.9,79.2,93.9,122.1,122.2,44.9,29.5,91,44.5,137.3,44.5s92.4-15,137.3-44.5c42.9-28.2,83.9-69.3,122.1-122.2-38.2-52.9-79.2-93.9-122.1-122.2-44.9-29.5-91-44.5-137.3-44.5s-92.4,15-137.3,44.5c-42.9,28.3-83.9,69.3-122.1,122.2Z"/>
      <path class="cls-1" d="M400,533.3c-73.5,0-133.3-59.8-133.3-133.3s59.8-133.3,133.3-133.3,133.3,59.8,133.3,133.3-59.8,133.3-133.3,133.3ZM400,333.3c-36.8,0-66.7,29.9-66.7,66.7s29.9,66.7,66.7,66.7,66.7-29.9,66.7-66.7-29.9-66.7-66.7-66.7Z"/>
    </g>
  </g>
</svg>