<?xml version="1.0" encoding="UTF-8"?>
<svg xmlns="http://www.w3.org/2000/svg" version="1.1" viewBox="0 0 64 64">
  <defs>
    <style>
      .cls-1 {
        fill: #53402b;
      }
    </style>
  </defs>
  <!-- Generator: Adobe Illustrator 28.6.0, SVG Export Plug-In . SVG Version: 1.2.0 Build 709)  -->
  <g>
    <g id="_圖層_1" data-name="圖層_1">
      <g id="SVGRepo_iconCarrier">
        <g id="Edit__x2F__Add_x5F_Plus_x5F_Circle">
          <g id="Vector">
            <path class="cls-1" d="M32,58.7c-7.1,0-13.8-2.8-18.9-7.8-5-5-7.8-11.7-7.8-18.9s2.8-13.8,7.8-18.9,11.7-7.8,18.9-7.8,13.8,2.8,18.9,7.8c10.4,10.4,10.4,27.3,0,37.7-5,5-11.7,7.8-18.9,7.8ZM32,10.7c-5.7,0-11.1,2.2-15.1,6.2-4,4-6.2,9.4-6.2,15.1s2.2,11.1,6.2,15.1h0c4,4,9.4,6.2,15.1,6.2s11.1-2.2,15.1-6.2c8.3-8.3,8.3-21.9,0-30.2-4-4-9.4-6.2-15.1-6.2ZM39.5,42.2c-.7,0-1.4-.3-1.9-.8l-5.7-5.7-5.7,5.7c-1,1-2.7,1-3.8,0-1-1-1-2.7,0-3.8l5.7-5.7-5.7-5.7c-1-1-1-2.7,0-3.8,1-1,2.7-1,3.8,0l5.7,5.7,5.7-5.7c1-1,2.7-1,3.8,0,1,1,1,2.7,0,3.8l-5.7,5.7,5.7,5.7c1,1,1,2.7,0,3.8s-1.2.8-1.9.8Z"/>
          </g>
        </g>
      </g>
    </g>
  </g>
</svg>