<?xml version="1.0" encoding="UTF-8"?>
<svg xmlns="http://www.w3.org/2000/svg" version="1.1" viewBox="0 0 800 800">
  <defs>
    <style>
      .cls-1 {
        fill: #a3948b;
      }
    </style>
  </defs>
  <!-- Generator: Adobe Illustrator 28.6.0, SVG Export Plug-In . SVG Version: 1.2.0 Build 709)  -->
  <g>
    <g id="_圖層_1" data-name="圖層_1">
      <path class="cls-1" d="M316.7,583.3c-2.5,0-5-.3-7.4-.8-17.9-4.1-29.2-22-25.1-39.9l9.3-40.9c-30-8.5-58.8-20.4-86.1-35.5l-31.7,38.4c-11.7,14.2-32.7,16.2-46.9,4.5-14.2-11.7-16.2-32.7-4.5-46.9l27.2-32.9c-28.4-21.9-54.3-46.9-77.2-74.7-11.7-14.2-9.7-35.2,4.5-46.9,14.2-11.7,35.2-9.7,46.9,4.5,26.4,32,57.4,59.8,92.1,82.5.2.2.5.3.7.5,36.6,23.9,76.9,40.3,119.7,48.9.8.1,1.6.3,2.4.5.1,0,.2,0,.3.1,39.1,7.3,78.8,7.3,117.9,0,.1,0,.2,0,.3-.1.8-.2,1.6-.3,2.4-.5,42.8-8.6,83.1-25,119.7-48.9.2-.2.5-.3.7-.5,34.7-22.7,65.7-50.5,92.1-82.6,11.7-14.2,32.7-16.2,46.9-4.5s16.2,32.7,4.5,46.9c-22.9,27.8-48.8,52.8-77.2,74.7l27.2,32.9c11.7,14.2,9.7,35.2-4.5,46.9-14.2,11.7-35.2,9.7-46.9-4.5l-31.7-38.4c-27.3,15.1-56.1,27-86.1,35.5l9.3,40.9c4.1,17.9-7.1,35.8-25.1,39.9-17.9,4.1-35.8-7.1-39.9-25.1l-9.8-42.9c-27.3,2.9-54.8,2.9-82.1,0l-9.8,42.9c-3.2,15.6-16.9,26-32.1,26Z"/>
    </g>
  </g>
</svg>