<?xml version="1.0" encoding="UTF-8"?>
<svg xmlns="http://www.w3.org/2000/svg" version="1.1" viewBox="0 0 614.8 397.6">
  <defs>
    <style>
      .cls-1 {
        fill: #e9e9ea;
      }

      .cls-2 {
        fill: #534741;
      }

      .cls-3 {
        fill: #fff;
      }
    </style>
  </defs>
  <!-- Generator: Adobe Illustrator 28.6.0, SVG Export Plug-In . SVG Version: 1.2.0 Build 709)  -->
  <g>
    <g id="_圖層_1" data-name="圖層_1">
      <rect class="cls-2" x="0" y="356.9" width="614.8" height="40.7" rx="20.3" ry="20.3"/>
      <g>
        <rect class="cls-3" x="118.8" y="-91.1" width="379.1" height="565.9" rx="5.5" ry="5.5" transform="translate(500.3 -116.5) rotate(90)"/>
        <path class="cls-2" d="M585.8,383.9H30.9c-4.4,0-7.9-3.6-7.9-7.9V7.8C23,3.5,26.6-.1,30.9-.1h554.9c4.4,0,7.9,3.6,7.9,7.9v368.1c0,4.4-3.6,7.9-7.9,7.9ZM30.9,4.8c-1.7,0-3.1,1.4-3.1,3.1v368.1c0,1.7,1.4,3.1,3.1,3.1h554.9c1.7,0,3.1-1.4,3.1-3.1V7.8c0-1.7-1.4-3.1-3.1-3.1H30.9Z"/>
      </g>
      <g>
        <rect class="cls-2" x="354.5" y="84.7" width="263.1" height="151" rx="16.4" ry="16.4" transform="translate(646.3 -325.8) rotate(90)"/>
        <g>
          <g>
            <rect class="cls-1" x="500.9" y="314.3" width="40.9" height="32.9"/>
            <path class="cls-2" d="M541.8,348.8h-40.9c-.8,0-1.5-.7-1.5-1.5v-32.9c0-.8.7-1.5,1.5-1.5h40.9c.8,0,1.5.7,1.5,1.5v32.9c0,.8-.7,1.5-1.5,1.5ZM502.4,345.8h37.9v-29.9h-37.9v29.9Z"/>
          </g>
          <g>
            <g>
              <rect class="cls-1" x="430.3" y="314.3" width="40.9" height="32.9"/>
              <path class="cls-2" d="M471.1,348.8h-40.9c-.8,0-1.5-.7-1.5-1.5v-32.9c0-.8.7-1.5,1.5-1.5h40.9c.8,0,1.5.7,1.5,1.5v32.9c0,.8-.7,1.5-1.5,1.5ZM431.8,345.8h37.9v-29.9h-37.9v29.9Z"/>
            </g>
            <rect class="cls-2" x="443.5" y="319.9" width="14.3" height="12.4" rx="1.3" ry="1.3"/>
          </g>
        </g>
      </g>
    </g>
  </g>
</svg>