<?xml version="1.0" encoding="UTF-8"?>
<svg xmlns="http://www.w3.org/2000/svg" version="1.1" viewBox="0 0 614.8 403.7">
  <defs>
    <style>
      .cls-1 {
        fill: #534741;
      }

      .cls-2 {
        fill: #fff;
      }
    </style>
  </defs>
  <!-- Generator: Adobe Illustrator 28.6.0, SVG Export Plug-In . SVG Version: 1.2.0 Build 709)  -->
  <g>
    <g id="_圖層_1" data-name="圖層_1">
      <rect class="cls-1" x="0" y="363" width="614.8" height="40.7" rx="20.3" ry="20.3"/>
      <g>
        <rect class="cls-2" x="118.8" y="-90.2" width="379.1" height="565.9" rx="5.5" ry="5.5" transform="translate(501.2 -115.6) rotate(90)"/>
        <path class="cls-1" d="M585.8,384.8H30.9c-4.4,0-7.9-3.6-7.9-7.9V8.7c0-4.4,3.6-7.9,7.9-7.9h554.9c4.4,0,7.9,3.6,7.9,7.9v368.1c0,4.4-3.6,7.9-7.9,7.9ZM30.9,5.6c-1.7,0-3.1,1.4-3.1,3.1v368.1c0,1.7,1.4,3.1,3.1,3.1h554.9c1.7,0,3.1-1.4,3.1-3.1V8.7c0-1.7-1.4-3.1-3.1-3.1H30.9Z"/>
      </g>
    </g>
  </g>
</svg>