<?xml version="1.0" encoding="UTF-8"?>
<svg xmlns="http://www.w3.org/2000/svg" version="1.1" viewBox="0 0 825 588.7">
  <defs>
    <style>
      .cls-1 {
        fill: #e9eaea;
      }

      .cls-2 {
        fill: #534741;
      }

      .cls-3 {
        fill: #fff;
      }
    </style>
  </defs>
  <!-- Generator: Adobe Illustrator 28.6.0, SVG Export Plug-In . SVG Version: 1.2.0 Build 709)  -->
  <g>
    <g id="_圖層_1" data-name="圖層_1">
      <g>
        <rect class="cls-2" y="548.1" width="825" height="40.7" rx="20.3" ry="20.3"/>
        <rect class="cls-3" x="17" y="5" width="794.8" height="565.9" rx="5.5" ry="5.5"/>
        <path class="cls-2" d="M806.3,573.3H22.5c-4.4,0-7.9-3.6-7.9-7.9V10.5c0-4.4,3.6-7.9,7.9-7.9h783.7c4.4,0,7.9,3.6,7.9,7.9v554.9c0,4.4-3.6,7.9-7.9,7.9h0ZM22.5,7.4c-1.7,0-3.1,1.4-3.1,3.1v554.9c0,1.7,1.4,3.1,3.1,3.1h783.7c1.7,0,3.1-1.4,3.1-3.1V10.5c0-1.7-1.4-3.1-3.1-3.1H22.5Z"/>
        <g>
          <rect class="cls-1" x="432.8" y="32.1" width="347.1" height="332.8" rx="5.5" ry="5.5"/>
          <path class="cls-2" d="M774.4,365.9h-336c-3.6,0-6.5-2.9-6.5-6.5V37.6c0-3.6,2.9-6.5,6.5-6.5h336c3.6,0,6.5,2.9,6.5,6.5v321.8c0,3.6-2.9,6.5-6.5,6.5ZM438.3,33.1c-2.5,0-4.5,2-4.5,4.5v321.8c0,2.5,2,4.5,4.5,4.5h336c2.5,0,4.5-2,4.5-4.5V37.6c0-2.5-2-4.5-4.5-4.5h-336Z"/>
        </g>
        <path class="cls-2" d="M461.6,173.8h0c3,0,5.5,2.5,5.5,5.5v35.3c0,3-2.5,5.5-5.5,5.5h0c-3,0-5.5-2.5-5.5-5.5v-35.3c0-3,2.5-5.5,5.5-5.5Z"/>
        <g>
          <g>
            <rect class="cls-3" x="493.5" y="129.6" width="246.4" height="150.1" rx="5.5" ry="5.5"/>
            <rect class="cls-2" x="508.1" y="143.4" width="217.2" height="122.5" rx="3.1" ry="3.1"/>
          </g>
          <path class="cls-2" d="M616.7,101.7h0c3.6,0,6.5,2.9,6.5,6.5h0c0,3.6-2.9,6.5-6.5,6.5h0c-3.6,0-6.5-2.9-6.5-6.5h0c0-3.6,2.9-6.5,6.5-6.5Z"/>
        </g>
        <g>
          <g>
            <rect class="cls-3" x="564.2" y="297.6" width="40.9" height="33.5"/>
            <path class="cls-2" d="M605,332.1h-40.9c-.5,0-1-.4-1-1v-33.5c0-.5.4-1,1-1h40.9c.5,0,1,.4,1,1v33.5c0,.5-.4,1-1,1ZM565.1,330.2h38.9v-31.6h-38.9v31.6Z"/>
          </g>
          <g>
            <g>
              <rect class="cls-3" x="493.5" y="297.6" width="40.9" height="33.5"/>
              <path class="cls-2" d="M534.4,332.1h-40.9c-.5,0-1-.4-1-1v-33.5c0-.5.4-1,1-1h40.9c.5,0,1,.4,1,1v33.5c0,.5-.4,1-1,1ZM494.5,330.2h38.9v-31.6h-38.9v31.6h0Z"/>
            </g>
            <rect class="cls-2" x="506.8" y="303.3" width="14.3" height="12.7" rx="1.3" ry="1.3"/>
          </g>
        </g>
      </g>
    </g>
  </g>
</svg>