<?xml version="1.0" encoding="UTF-8"?>
<svg id="_圖層_2" data-name="圖層_2" xmlns="http://www.w3.org/2000/svg" viewBox="0 0 11.65 13.63">
  <g id="Layer_1">
    <path d="M2.44,7.91c1.07-.39,2.31-.54,3.38-.54s2.31.15,3.38.54c.94.34,1.76.87,2.28,1.63.1.14.16.32.16.51v2.69c0,.49-.4.89-.9.89H.9C.4,13.63,0,13.23,0,12.74v-2.68c0-.18.05-.35.15-.51.52-.77,1.34-1.3,2.29-1.65ZM9.04,3.23c0,1.79-1.45,3.23-3.23,3.23s-3.23-1.45-3.23-3.23S4.02,0,5.81,0s3.23,1.45,3.23,3.23Z" style="fill: #a3948b; fill-rule: evenodd;"/>
  </g>
</svg>