<?xml version="1.0" encoding="UTF-8"?>
<svg xmlns="http://www.w3.org/2000/svg" version="1.1" viewBox="0 0 64 64">
  <defs>
    <style>
      .cls-1 {
        fill: #534741;
      }
    </style>
  </defs>
  <!-- Generator: Adobe Illustrator 28.6.0, SVG Export Plug-In . SVG Version: 1.2.0 Build 709)  -->
  <g>
    <g id="_圖層_1" data-name="圖層_1">
      <g id="_圖層_1-2" data-name="_圖層_1">
        <g id="_圖層_1-2">
          <g id="SVGRepo_iconCarrier">
            <path class="cls-1" d="M48,64H15.9C7.1,64,0,56.8,0,48.1V16C0,7.2,7.2,0,15.9,0h32c8.9,0,15.9,7.2,15.9,15.9v32c0,8.9-7.2,15.9-15.9,15.9ZM16.1,6.5c-5.3,0-9.6,4.3-9.6,9.6v32c0,5.3,4.3,9.6,9.6,9.6h32c5.3,0,9.6-4.3,9.6-9.6V16c0-5.3-4.3-9.6-9.6-9.6,0,0-32,0-32,0Z"/>
            <path class="cls-1" d="M20.6,47.6c-1,0-1.8-.4-2.5-1.1-.8-.8-1.2-1.9-1-3.1l2.2-12.8,13.9-13.9c1.2-1.2,2.8-1.9,4.6-1.9s3.4.7,4.6,1.9l5.8,5.8c2.5,2.5,2.5,6.6,0,9h0l-13.9,13.9-12.8,2.2h-.7,0ZM20.1,41.2h0ZM25.3,33.7l-1.1,6.8,6.8-1.2,12.5-12.3-5.8-5.8-12.3,12.3h-.1Z"/>
          </g>
        </g>
      </g>
    </g>
  </g>
</svg>