<?xml version="1.0" encoding="UTF-8"?>
<svg xmlns="http://www.w3.org/2000/svg" version="1.1" viewBox="0 0 512 512">
  <defs>
    <style>
      .cls-1 {
        fill: #fff;
      }
    </style>
  </defs>
  <!-- Generator: Adobe Illustrator 28.6.0, SVG Export Plug-In . SVG Version: 1.2.0 Build 709)  -->
  <g>
    <g id="_圖層_1" data-name="圖層_1">
      <g>
        <path class="cls-1" d="M256,426.7c0-14.7-11.9-26.7-26.7-26.7h-117.3V112h117.3c14.7,0,26.7-11.9,26.7-26.7s-11.9-26.7-26.7-26.7h-122.7c-26.5,0-48,21.5-48,48v298.7c0,26.5,21.5,48,48,48h122.7c14.7,0,26.7-11.9,26.7-26.7Z"/>
        <path class="cls-1" d="M320,325l42.3-42.3h-165c-14.7,0-26.7-11.9-26.7-26.7s11.9-26.7,26.7-26.7h165l-42.3-42.3c-10.4-10.4-10.4-27.3,0-37.7,10.4-10.4,27.3-10.4,37.7,0l87.8,87.8c5,5,7.8,11.8,7.8,18.9s-2.8,13.9-7.8,18.9l-87.8,87.8c-10.4,10.4-27.3,10.4-37.7,0-10.4-10.4-10.4-27.3,0-37.7h0Z"/>
      </g>
    </g>
  </g>
</svg>