<?xml version="1.0" encoding="UTF-8"?>
<svg xmlns="http://www.w3.org/2000/svg" version="1.1" viewBox="0 0 64 64">
  <defs>
    <style>
      .cls-1 {
        fill: #534741;
      }
    </style>
  </defs>
  <!-- Generator: Adobe Illustrator 28.6.0, SVG Export Plug-In . SVG Version: 1.2.0 Build 709)  -->
  <g>
    <g id="_圖層_1" data-name="圖層_1">
      <g id="_圖層_1-2" data-name="_圖層_1">
        <g id="_圖層_1-2">
          <g id="_圖層_1-2-2" data-name="_圖層_1-2">
            <g id="SVGRepo_iconCarrier">
              <g id="Edit__x2F__Add_x5F_Plus_x5F_Circle">
                <g id="Vector">
                  <path class="cls-1" d="M9.3,54.7C-3.1,42.2-3.1,21.8,9.3,9.3s32.8-12.5,45.3,0c12.5,12.5,12.5,32.8,0,45.3-12.5,12.5-32.8,12.5-45.3,0ZM50.1,13.9c-9.9-9.9-26.1-9.9-36.1,0-9.9,9.9-9.9,26.1,0,36.1,9.9,9.9,26.1,9.9,36.1,0,9.9-9.9,9.9-26.1,0-36.1ZM20.7,43.3c-1.3-1.3-1.3-3.4,0-4.6l6.8-6.8-6.8-6.8c-1.3-1.3-1.3-3.4,0-4.6s3.4-1.3,4.6,0l6.8,6.8,6.8-6.8c1.3-1.3,3.4-1.3,4.6,0s1.3,3.4,0,4.6l-6.8,6.8,6.8,6.8c1.3,1.3,1.3,3.4,0,4.6s-3.4,1.3-4.6,0l-6.8-6.8-6.8,6.8c-1.3,1.3-3.4,1.3-4.6,0Z"/>
                </g>
              </g>
            </g>
          </g>
        </g>
      </g>
    </g>
  </g>
</svg>