<?xml version="1.0" encoding="UTF-8"?>
<svg id="_圖層_2" data-name="圖層_2" xmlns="http://www.w3.org/2000/svg" viewBox="0 0 10.75 14.33">
  <g id="Layer_1">
    <path d="M2.69,5.82h5.38v-1.79c0-.74-.3-1.41-.79-1.9s-1.16-.79-1.9-.79-1.41.3-1.9.79c-.49.49-.79,1.16-.79,1.9v1.79h0ZM5.37,8.51c-.62,0-1.12.5-1.12,1.12,0,.46.28.85.67,1.03v.76c0,.25.2.45.45.45s.45-.2.45-.45v-.76c.4-.17.67-.57.67-1.03,0-.62-.5-1.12-1.12-1.12h0ZM9.4,5.82h0c.74,0,1.34.6,1.34,1.34v5.82c0,.74-.6,1.34-1.34,1.34H1.34c-.74,0-1.34-.6-1.34-1.34v-5.82c0-.74.6-1.34,1.34-1.34v-1.79c0-1.11.45-2.12,1.18-2.85s1.74-1.18,2.85-1.18,2.12.45,2.85,1.18c.73.73,1.18,1.74,1.18,2.85v1.79Z" style="fill: #a3948b; fill-rule: evenodd;"/>
  </g>
</svg>